<?xml version="1.0" standalone="no"?>
<!DOCTYPE svg PUBLIC "-//W3C//DTD SVG 20010904//EN"
 "http://www.w3.org/TR/2001/REC-SVG-20010904/DTD/svg10.dtd">
<svg version="1.0" xmlns="http://www.w3.org/2000/svg"
 width="200.000000pt" height="200.000000pt" viewBox="0 0 200.000000 200.000000"
 preserveAspectRatio="xMidYMid meet">
<metadata>
Created by potrace 1.12, written by Peter Selinger 2001-2015
</metadata>
<g transform="translate(0.000000,200.000000) scale(0.100000,-0.100000)"
fill="#000000" stroke="none">
<path d="M0 1000 l0 -1000 1000 0 1000 0 0 1000 0 1000 -1000 0 -1000 0 0
-1000z m1164 865 c331 -70 591 -331 662 -665 18 -84 18 -276 0 -360 -61 -286
-269 -530 -537 -630 -183 -67 -425 -67 -608 0 -268 100 -476 344 -537 630 -18
84 -18 276 0 360 70 332 329 593 658 665 84 18 276 18 362 0z"/>
<path d="M500 1025 l0 -425 95 0 96 0 -3 300 c-2 164 0 296 3 292 4 -4 53
-139 110 -299 l104 -293 71 0 71 0 109 297 109 297 3 -297 2 -297 100 0 100 0
0 425 0 425 -149 0 -149 0 -89 -267 c-50 -148 -94 -266 -99 -264 -8 4 -31 64
-158 424 l-38 107 -144 0 -144 0 0 -425z"/>
</g>
</svg>
